<svg width="417" height="235" viewBox="0 0 417 235" version="1.1" xmlns="http://www.w3.org/2000/svg" xmlns:xlink="http://www.w3.org/1999/xlink">
<g id="Canvas" fill="none">
<g id="Group">
<g id="Vector">
<path d="M 412.707 214.854L 410.144 128.435C 410.122 127.934 410.078 127.456 410.057 126.977C 410.057 126.977 409.34 67.4709 409.34 63.2717L 409.34 1.08953L 409.992 0.458568L 328.628 0.458568C 316.812 0.458568 240.465 0.415054 206.212 0.371539C 197.98 0.349782 191.421 0.349782 187.75 0.328025C 157.754 0.175724 55.5821 -0.0200912 25.6951 0.00166603C 18.9835 0.00166603 11.7507 0.784927 6.71156 4.81002C 2.38923 8.24766 3.84449 10.5322 2.43267 15.5799C 1.54214 18.8217 1.58558 27.0894 1.23805 30.4401C 0.608167 36.4886 -0.0434405 45.235 0.629887 51.2617C 1.73762 60.9872 -0.0217202 66.0132 1.08601 75.7386C 1.19461 76.6742 1.34666 115.25 1.62902 128.413L 0.543007 128.413C 0.456125 153.999 0.304084 202.148 0.152042 205.651C 0.0434405 207.936 4.14281e-08 209.785 4.14281e-08 211.482C 4.14281e-08 217.813 0.738489 222.23 2.30235 225.341C 4.90878 230.52 11.9244 231.151 16.9635 231.172L 202.15 231.172L 206.19 231.172L 393.115 231.172C 409.297 230.998 412.707 230.389 412.707 214.854ZM 202.15 225.298C 126.347 225.298 34.6873 225.298 34.6873 225.298C 21.7203 225.276 12.7281 209.219 12.2502 188.115C 12.2502 143.687 13.0539 121.799 13.0539 77.3487C 13.0539 67.9278 10.6212 49.086 25.6299 41.9496C 28.3232 40.666 31.7116 40.4049 34.3832 41.7321C 32.7107 34.5087 39.0096 27.0894 46.8506 25.0225C 54.7133 22.9556 63.3146 25.3271 70.0696 29.5262C 72.0895 23.3037 79.2355 19.7355 86.0122 17.5815C 95.3085 14.6225 104.909 14.5573 114.509 13.6652C 114.857 13.6435 187.381 13.6217 187.728 13.5782L 187.728 13.4694C 190.899 13.2953 197.611 13.1648 206.19 13.0995L 206.19 13.056C 237.337 12.8602 347.111 12.5121 362.012 12.882C 382.494 13.3606 392.898 20.0836 395.244 37.5112C 397.546 54.4818 398.111 131.154 395.96 182.828C 395.613 190.987 382.733 201.8 375.695 201.691C 375.695 201.691 374.653 208.697 371.764 212.135C 364.053 220.141 346.786 217.9 339.618 210.351C 340.313 218.075 331.538 225.32 323.045 225.32L 206.212 225.32L 202.15 225.32L 202.15 225.298Z" transform="translate(1.99823 232.63) scale(1 -1)" fill="#232037"/>
</g>
<g id="Vector_2">
<path d="M 416.45 219.465L 416.45 15.8175C 416.71 4.48199 415.798 0 405.72 0L 207.696 0L 206.893 0L 18.4041 0C 10.2808 0 6.17563 1.19665 3.19996 3.26359C 1.24514 4.61254 0.85417 7.50625 0.767289 9.79076C 0.767289 9.79076 0.702128 96.6674 0.593527 132.959L 0.571807 132.959C 0.463205 159.481 0.332884 206.346 0.159122 210.001C -0.166682 217.029 -0.210123 224.861 2.22255 229.757C 4.50317 234.304 10.7152 234.935 15.8629 234.978L 206.067 234.978L 397.857 234.978C 414.104 234.761 416.45 234.521 416.45 219.465ZM 206.067 231.693L 34.1079 231.693C 20.2286 231.671 5.58919 221.511 5.0679 198.578L 5.0679 51.4994C 7.43541 41.2952 18.5345 30.2426 30.2634 30.3949C 29.8942 26.3698 31.6752 22.3229 34.5206 19.4075C 37.3659 16.492 41.1453 14.5774 45.0766 13.4025C 53.4606 10.8786 61.8229 11.1397 70.3156 13.6418C 71.7708 10.2694 75.4633 6.83178 79.6553 6.48366L 206.893 6.48366L 207.696 6.48366L 393.904 6.48366C 406.893 6.005 410.433 9.20331 410.433 16.7531L 410.281 132.959L 410.281 156.282C 410.151 172.296 412.019 181.477 402.288 195.337C 397.466 202.212 389.603 207.521 381.111 207.39C 382.045 207.412 380.09 214.178 377.179 217.551C 369.947 225.927 353.57 224.013 344.881 218.617C 341.797 225.296 335.346 231.214 325.92 231.693L 206.067 231.693Z" transform="translate(0.514191 234.978) scale(1 -1)" fill="url(#paint0_linear)"/>
</g>
<g id="Group_2">
<g id="Vector_3">
<path d="M 8.28562e-08 15.7087L 8.28562e-08 162.788C 0.521286 185.72 14.3788 195.162 28.2363 195.162L 320.026 195.162C 326.39 194.836 331.386 192.747 334.905 188.896C 331.755 191.203 327.867 192.747 323.241 192.987L 203.432 192.987L 31.4727 192.987C 17.5934 192.965 2.95396 182.804 2.43267 159.872L 2.43267 12.7933C 3.45352 8.35478 6.14683 3.764 9.79584 -1.32796e-06C 4.49609 4.13388 1.30322 10.0518 8.28562e-08 15.7087Z" transform="translate(3.14944 196.272) scale(1 -1)" fill="#516B80"/>
</g>
<g id="Vector_4">
<path d="M 4.19201 2.241C 1.97654 4.52551 0.412684 7.46274 -6.6285e-07 10.574C 1.04257 10.4217 2.10687 10.3347 3.17116 10.3347C 2.82363 6.59244 4.34405 2.8502 6.82016 -6.63978e-07C 5.88619 0.674474 4.99566 1.41422 4.19201 2.241Z" transform="translate(27.6064 214.918) scale(1 -1)" fill="#516B80"/>
</g>
<g id="Vector_5">
<path d="M -1.3257e-06 2.37154C 0.390963 2.48033 0.760212 2.56736 1.15118 2.6979C 1.54214 1.78409 2.10686 0.848532 2.80191 -1.65995e-07C 1.75934 0.652717 0.803648 1.47949 -1.3257e-06 2.37154Z" transform="translate(69.6786 224.034) scale(1 -1)" fill="#516B80"/>
</g>
<g id="Vector_6">
<path d="M 13.4883 2.91547L 201.955 2.91547L 202.759 2.91547L 400.804 2.91547C 410.882 2.91547 411.794 7.37571 411.534 18.733L 411.534 222.381C 411.534 227.885 411.208 231.388 410.035 233.651C 413.966 232.019 414.77 228.299 414.77 219.465L 414.77 15.8175C 415.031 4.48199 414.118 -3.24188e-10 404.04 -3.24188e-10L 206.017 -3.24188e-10L 205.213 -3.24188e-10L 16.7246 -3.24188e-10C 8.60122 -3.24188e-10 4.49609 1.19665 1.52042 3.26359C 0.84709 3.74225 0.369244 4.39496 -4.14281e-08 5.13471C 2.86707 3.72049 6.82016 2.91547 13.4883 2.91547Z" transform="translate(2.19373 235) scale(1 -1)" fill="#648197"/>
</g>
<g id="Vector_7">
<path d="M 14.9435 2.65591e-06C 10.6864 3.3071 5.56038 5.41756 0.173757 5.33053C 0.543001 5.33053 0.456136 6.48365 1.06056e-05 8.02842C 5.669 7.26691 10.9036 4.17739 14.9435 2.65591e-06Z" transform="translate(381.451 32.9187) scale(1 -1)" fill="#516B80"/>
</g>
<g id="Vector_8">
<path d="M 31.1034 1.84937C 31.1903 1.74058 31.2772 1.6318 31.364 1.52301C 23.2841 6.81002 9.68723 4.76484 2.04169 2.65591e-06C 1.47697 1.24017 0.78194 2.43681 1.06056e-05 3.58995C 8.90532 8.46357 24.1964 9.85603 31.1034 1.84937Z" transform="translate(343.332 16.3832) scale(1 -1)" fill="#516B80"/>
</g>
</g>
<g id="Vector_9">
<path d="M 339.792 212.18C 348.48 217.576 364.857 219.49 372.09 211.114C 373.697 209.765 375.891 205.348 376.086 202.868C 376.217 201.345 376.26 201.062 376.282 200.953C 384.688 200.975 392.442 195.71 397.22 188.9C 406.951 175.04 405.083 165.859 405.213 149.845L 405.213 126.522L 405.365 10.3162C 405.365 2.7447 401.825 -0.431854 388.836 0.0468054L 200.999 0.0468054L 74.5874 0.0468054C 70.3954 0.394921 66.7029 3.81081 65.2477 7.20494C 56.755 4.70286 48.3927 4.44177 40.0087 6.96561C 36.0774 8.1405 32.298 10.0551 29.4527 12.9706C 26.6073 15.8861 24.8263 19.9329 25.1955 23.958C 13.4448 23.8057 2.36751 34.8584 -1.65712e-07 45.0625L -1.65712e-07 192.142C 0.521286 215.074 15.1825 225.234 29.04 225.256L 200.999 225.256L 320.83 225.256C 330.257 224.777 336.686 218.859 339.792 212.18ZM 201.195 220.687L 29.2355 220.687C 16.9418 221.623 4.51781 212.485 4.03997 192.12L 4.03997 45.4759C 6.23372 36.8601 15.5951 27.4827 25.1303 27.5915L 29.583 27.6567L 29.2137 23.6752C 29.192 23.4141 29.1703 23.1748 29.1703 22.9137C 29.1703 20.281 30.3866 17.5396 32.4935 15.3639C 34.5787 13.2099 37.5543 11.5346 41.2902 10.425C 48.5665 8.22753 55.9948 8.31456 63.9879 10.6643L 67.6369 11.7304L 69.027 8.51037C 69.961 6.33465 72.3719 3.96311 74.8046 3.68027L 200.999 3.68027L 388.923 3.68027L 389.01 3.68027C 394.701 3.46269 398.371 4.02838 399.87 5.33382C 400.5 5.87775 401.325 6.96561 401.325 10.338L 401.173 122.91L 401.173 126.543L 401.173 149.867C 401.173 150.476 401.173 151.086 401.173 151.695C 401.173 153.457 401.195 155.132 401.217 156.742C 401.238 158.222 401.238 159.636 401.238 161.007C 401.238 170.014 400.695 177.173 393.81 186.985C 389.488 193.121 383.189 197.015 377.129 197.32C 376.825 197.342 376.499 197.342 376.195 197.342C 376.195 197.342 373.545 197.559 371.916 197.472C 371.981 201.671 371.112 205.783 368.658 208.721C 366.92 210.809 364.379 212.332 360.817 212.898C 357.45 213.442 353.953 213.072 350.608 212.441C 346.395 211.658 337.989 206.632 337.989 206.632L 336.078 210.787C 334.644 213.877 330.3 221.079 320.743 221.644L 201.195 220.687Z" transform="translate(5.58209 228.541) scale(1 -1)" fill="url(#paint1_linear)"/>
</g>
<g id="Group_3">
<g id="Vector_10">
<path d="M 35.3171 0.717989L 9.55691 0C 3.649 0.130543 0.0868812 2.52384 1.65712e-07 8.63763L 0.82537 24.4769C 6.49436 13.4242 18.093 4.35145 35.3171 0.717989Z" transform="translate(6.75497 230.518) scale(1 -1)" fill="#328A99"/>
</g>
<g id="Vector_11">
<path d="M 36.729 -8.29973e-08L 9.7524 -8.29973e-08C 4.38749 -8.29973e-08 3.31425e-07 3.95982 3.31425e-07 8.81168L 3.31425e-07 24.2158C 5.66899 13.1414 19.4831 3.63346 36.729 -8.29973e-08Z" transform="translate(7.55865 229.887) scale(1 -1)" fill="url(#paint2_linear)"/>
</g>
<g id="Vector_12">
<path d="M 0 7.70206C 0 3.4594 3.80105 -1.65995e-07 8.49262 -1.65995e-07L 27.2372 -1.65995e-07C 15.0087 3.39413 5.16942 9.96482 0 18.8418L 0 7.70206Z" transform="translate(8.99219 228.712) scale(1 -1)" fill="#232037"/>
</g>
<g id="Vector_13" opacity="0.6">
<path d="M 21.199 0L 7.27629 0C 3.2146 1.26192 1.23806 3.43764 0.608168 6.02676L -3.31425e-07 15.2301C 5.75587 8.37654 11.3597 4.52551 21.199 0Z" transform="translate(9.23114 228.016) scale(1 -1)" fill="url(#paint3_radial)"/>
</g>
</g>
<g id="Group_4">
<g id="Vector_14">
<path d="M -1.06056e-05 23.9112L 27.2807 24.5422C 32.6456 24.5422 37.1634 20.7782 37.3806 15.9481L 37.576 -5.31183e-06C 32.2763 11.5096 17.2242 20.2778 -1.06056e-05 23.9112Z" transform="translate(373.067 29.1329) scale(1 -1)" fill="#328A99"/>
</g>
<g id="Vector_15">
<path d="M 5.3028e-06 24.194L 26.9766 24.194C 32.3415 24.194 36.729 20.2342 36.729 15.3824L 36.729 0C 31.06 11.0527 17.2242 20.5606 5.3028e-06 24.194Z" transform="translate(374.197 29.5898) scale(1 -1)" fill="url(#paint4_linear)"/>
</g>
<g id="Vector_16">
<path d="M 27.2372 11.1397C 27.2372 15.3824 23.4362 18.8418 18.7446 18.8418L 0 18.8418C 12.2285 15.4694 22.0895 8.87696 27.2372 2.65591e-06L 27.2372 11.1397Z" transform="translate(382.255 25.4125) scale(1 -1)" fill="#232037"/>
</g>
<g id="Vector_17" opacity="0.6">
<path d="M -1.06056e-05 15.2518L 13.9444 15.2518C 18.0061 13.9899 19.9826 11.8142 20.6125 9.22508L 21.199 0C 15.4431 6.87529 9.83927 10.7263 -1.06056e-05 15.2518Z" transform="translate(388.054 22.5187) scale(1 -1)" fill="url(#paint5_radial)"/>
</g>
<g id="Vector_18">
<path d="M 3.73589 6.74474C 5.79916 6.74474 7.47176 5.23488 7.47176 3.37237C 7.47176 1.50986 5.79916 -5.31183e-06 3.73589 -5.31183e-06C 1.67262 -5.31183e-06 -1.06056e-05 1.50986 -1.06056e-05 3.37237C -1.06056e-05 5.23488 1.67262 6.74474 3.73589 6.74474Z" transform="translate(398.045 15.4259) scale(1 -1)" fill="url(#paint6_radial)"/>
</g>
</g>
</g>
</g>
<defs>

<linearGradient id="paint0_linear" x2="1" gradientUnits="userSpaceOnUse" gradientTransform="matrix(461.387 305.364 -304.845 462.173 153.927 -251.255)">
<stop stop-color="#323858"/>
<stop offset="0.0913295" stop-color="#37405D"/>
<stop offset="0.2856" stop-color="#3D4C64"/>
<stop offset="0.4839" stop-color="#3F5066"/>
<stop offset="0.7155" stop-color="#3D4D64"/>
<stop offset="0.9012" stop-color="#38435E"/>
<stop offset="1" stop-color="#323858"/>
</linearGradient>
<linearGradient id="paint1_linear" x2="1" gradientUnits="userSpaceOnUse" gradientTransform="matrix(0 279.461 -278.986 0 342.17 0.0036392)">
<stop offset="0.0698925" stop-color="#323858"/>
<stop offset="0.3137" stop-color="#2A2B47"/>
<stop offset="0.5868" stop-color="#25233B"/>
<stop offset="0.8656" stop-color="#232037"/>
</linearGradient>
<linearGradient id="paint2_linear" x2="1" gradientUnits="userSpaceOnUse" gradientTransform="matrix(-10.1612 -14.6607 14.6358 -10.1785 10.5431 16.4686)">
<stop stop-color="#232037"/>
<stop offset="1" stop-color="#323858"/>
</linearGradient>
<radialGradient id="paint3_radial" cx="0.5" cy="0.5" r="0.5" gradientUnits="userSpaceOnUse" gradientTransform="matrix(0 17.3071 -19.1603 0 20.1836 -1.04205)">
<stop offset="0.2706" stop-color="#00ACB4"/>
<stop offset="0.3751" stop-color="#00A8B0"/>
<stop offset="0.4841" stop-color="#009CA3"/>
<stop offset="0.5951" stop-color="#00888E"/>
<stop offset="0.7075" stop-color="#006C71"/>
<stop offset="0.8211" stop-color="#00484C"/>
<stop offset="0.9339" stop-color="#001D1E"/>
<stop offset="1"/>
</radialGradient>
<linearGradient id="paint4_linear" x2="1" gradientUnits="userSpaceOnUse" gradientTransform="matrix(10.1612 14.6607 -14.6358 10.1785 26.1826 7.7253)">
<stop stop-color="#232037"/>
<stop offset="1" stop-color="#323858"/>
</linearGradient>
<radialGradient id="paint5_radial" cx="0.5" cy="0.5" r="0.5" gradientUnits="userSpaceOnUse" gradientTransform="matrix(0 -17.307 19.1602 0 1.01223 16.3085)">
<stop offset="0.2706" stop-color="#00ACB4"/>
<stop offset="0.3751" stop-color="#00A8B0"/>
<stop offset="0.4841" stop-color="#009CA3"/>
<stop offset="0.5951" stop-color="#00888E"/>
<stop offset="0.7075" stop-color="#006C71"/>
<stop offset="0.8211" stop-color="#00484C"/>
<stop offset="0.9339" stop-color="#001D1E"/>
<stop offset="1"/>
</radialGradient>
<radialGradient id="paint6_radial" cx="0.5" cy="0.5" r="0.5" gradientUnits="userSpaceOnUse" gradientTransform="matrix(0 -6.73692 7.45829 0 0.0121832 6.76714)">
<stop stop-color="#1BE1F0"/>
<stop offset="0.2167" stop-color="#14A6B1"/>
<stop offset="0.4987" stop-color="#0B6066"/>
<stop offset="0.7326" stop-color="#052C2F"/>
<stop offset="0.9061" stop-color="#010C0D"/>
<stop offset="1"/>
</radialGradient>

</defs>
</svg>

