
<svg width="219" height="102" viewBox="0 0 219 102" version="1.1" xmlns="http://www.w3.org/2000/svg" xmlns:xlink="http://www.w3.org/1999/xlink">
<title>Group 2</title>
<desc>Created using Figma</desc>
<g id="Canvas" transform="translate(-53 664)">
<g id="Group 2">
<g id="Arrow">
<use xlink:href="#path0_stroke" transform="translate(109 -662.77)" fill="#56CCF2"/>
</g>
<g id="Group">
<g id="Group">
<g id="Vector">
<use xlink:href="#path1_fill" transform="matrix(-1 0 0 1 93.5962 -585.1)" fill="#56CCF2"/>
</g>
<g id="Vector">
<use xlink:href="#path2_fill" transform="matrix(-1 0 0 1 108.74 -633)" fill="#56CCF2"/>
</g>
<g id="Vector">
<use xlink:href="#path3_fill" transform="matrix(-1 0 0 1 67.0151 -609.1)" fill="#56CCF2"/>
</g>
</g>
</g>
<g id="Group">
<g id="Group">
<g id="Vector">
<use xlink:href="#path4_fill" transform="translate(220.178 -601.3)" fill="#56CCF2"/>
</g>
<g id="Vector">
<use xlink:href="#path5_fill" transform="translate(224.778 -603.3)" fill="#56CCF2"/>
</g>
<g id="Vector">
<use xlink:href="#path6_fill" transform="translate(220.978 -601.5)" fill="#56CCF2"/>
</g>
<g id="Vector">
<use xlink:href="#path7_fill" transform="translate(224.678 -598.4)" fill="#56CCF2"/>
</g>
<g id="Vector">
<use xlink:href="#path8_fill" transform="translate(225.278 -599)" fill="#56CCF2"/>
</g>
<g id="Vector">
<use xlink:href="#path9_fill" transform="translate(223.978 -598.7)" fill="#56CCF2"/>
</g>
<g id="Vector">
<use xlink:href="#path10_fill" transform="translate(224.003 -599.5)" fill="#56CCF2"/>
</g>
<g id="Vector">
<use xlink:href="#path11_fill" transform="translate(231.678 -622.143)" fill="#56CCF2"/>
</g>
<g id="Vector">
<use xlink:href="#path12_fill" transform="translate(231.578 -621.451)" fill="#56CCF2"/>
</g>
<g id="Vector">
<use xlink:href="#path13_fill" transform="translate(190.778 -601.3)" fill="#56CCF2"/>
</g>
<g id="Vector">
<use xlink:href="#path14_fill" transform="translate(189.178 -601.2)" fill="#56CCF2"/>
</g>
<g id="Vector">
<use xlink:href="#path15_fill" transform="translate(190.378 -603.3)" fill="#56CCF2"/>
</g>
<g id="Vector">
<use xlink:href="#path16_fill" transform="translate(186.878 -598.4)" fill="#56CCF2"/>
</g>
<g id="Vector">
<use xlink:href="#path17_fill" transform="translate(187.178 -599)" fill="#56CCF2"/>
</g>
<g id="Vector">
<use xlink:href="#path18_fill" transform="translate(190.078 -598.7)" fill="#56CCF2"/>
</g>
<g id="Vector">
<use xlink:href="#path19_fill" transform="translate(189.778 -599.5)" fill="#56CCF2"/>
</g>
<g id="Vector">
<use xlink:href="#path20_fill" transform="translate(144 -622.177)" fill="#56CCF2"/>
</g>
<g id="Vector">
<use xlink:href="#path21_fill" transform="translate(144.878 -621.35)" fill="#56CCF2"/>
</g>
<g id="Vector">
<use xlink:href="#path22_fill" transform="translate(195.278 -602.8)" fill="#56CCF2"/>
</g>
<g id="Vector">
<use xlink:href="#path23_fill" transform="translate(183.878 -626)" fill="#56CCF2"/>
</g>
<g id="Vector">
<use xlink:href="#path24_fill" transform="translate(230.178 -620.1)" fill="#56CCF2"/>
</g>
<g id="Vector">
<use xlink:href="#path25_fill" transform="translate(221.378 -602.8)" fill="#56CCF2"/>
</g>
<g id="Vector">
<use xlink:href="#path26_fill" transform="translate(219.878 -602.8)" fill="#56CCF2"/>
</g>
<g id="Vector">
<use xlink:href="#path27_fill" transform="translate(224.778 -602.8)" fill="#56CCF2"/>
</g>
<g id="Vector">
<use xlink:href="#path28_fill" transform="translate(220.578 -602.8)" fill="#56CCF2"/>
</g>
<g id="Vector">
<use xlink:href="#path29_fill" transform="translate(230.178 -621.7)" fill="#56CCF2"/>
</g>
<g id="Vector">
<use xlink:href="#path30_fill" transform="translate(230.178 -620.9)" fill="#56CCF2"/>
</g>
<g id="Vector">
<use xlink:href="#path31_fill" transform="translate(190.678 -602.8)" fill="#56CCF2"/>
</g>
<g id="Vector">
<use xlink:href="#path32_fill" transform="translate(183.778 -620.2)" fill="#56CCF2"/>
</g>
<g id="Vector">
<use xlink:href="#path33_fill" transform="translate(194.478 -602.8)" fill="#56CCF2"/>
</g>
<g id="Vector">
<use xlink:href="#path34_fill" transform="translate(193.678 -602.8)" fill="#56CCF2"/>
</g>
<g id="Vector">
<use xlink:href="#path35_fill" transform="translate(189.278 -602.8)" fill="#56CCF2"/>
</g>
<g id="Vector">
<use xlink:href="#path36_fill" transform="translate(183.778 -621.7)" fill="#56CCF2"/>
</g>
<g id="Vector">
<use xlink:href="#path37_fill" transform="translate(183.778 -620.9)" fill="#56CCF2"/>
</g>
<g id="Vector">
<use xlink:href="#path38_fill" transform="translate(185.378 -598)" fill="#56CCF2"/>
</g>
<g id="Vector">
<use xlink:href="#path39_fill" transform="translate(187.478 -601.4)" fill="#56CCF2"/>
</g>
<g id="Vector">
<use xlink:href="#path40_fill" transform="translate(152.404 -597)" fill="#56CCF2"/>
</g>
<g id="Vector">
<use xlink:href="#path41_fill" transform="translate(190.778 -605.8)" fill="#56CCF2"/>
</g>
<g id="Vector">
<use xlink:href="#path42_fill" transform="translate(186.778 -601.3)" fill="#56CCF2"/>
</g>
<g id="Vector">
<use xlink:href="#path43_fill" transform="translate(185.278 -613.9)" fill="#56CCF2"/>
</g>
<g id="Vector">
<use xlink:href="#path44_fill" transform="translate(173.678 -608.4)" fill="#56CCF2"/>
</g>
<g id="Vector">
<use xlink:href="#path45_fill" transform="translate(189.178 -601.3)" fill="#56CCF2"/>
</g>
<g id="Vector">
<use xlink:href="#path46_fill" transform="translate(189.478 -608.7)" fill="#56CCF2"/>
</g>
<g id="Vector">
<use xlink:href="#path47_fill" transform="translate(186.078 -597.8)" fill="#56CCF2"/>
</g>
<g id="Vector">
<use xlink:href="#path48_fill" transform="translate(186.378 -598.7)" fill="#56CCF2"/>
</g>
<g id="Vector">
<use xlink:href="#path49_fill" transform="translate(189.878 -604.4)" fill="#56CCF2"/>
</g>
<g id="Vector">
<use xlink:href="#path50_fill" transform="translate(183.778 -610)" fill="#56CCF2"/>
</g>
<g id="Vector">
<use xlink:href="#path51_fill" transform="translate(188.378 -602.4)" fill="#56CCF2"/>
</g>
<g id="Vector">
<use xlink:href="#path52_fill" transform="translate(189.178 -602.8)" fill="#56CCF2"/>
</g>
<g id="Vector">
<use xlink:href="#path53_fill" transform="translate(152.778 -597.7)" fill="#56CCF2"/>
</g>
<g id="Vector">
<use xlink:href="#path54_fill" transform="translate(185.378 -613.2)" fill="#56CCF2"/>
</g>
<g id="Vector">
<use xlink:href="#path55_fill" transform="translate(189.078 -602.9)" fill="#56CCF2"/>
</g>
<g id="Vector">
<use xlink:href="#path56_fill" transform="translate(186.741 -601.3)" fill="#56CCF2"/>
</g>
<g id="Vector">
<use xlink:href="#path57_fill" transform="translate(173.978 -607.3)" fill="#56CCF2"/>
</g>
<g id="Vector">
<use xlink:href="#path58_fill" transform="translate(189.178 -603.4)" fill="#56CCF2"/>
</g>
<g id="Vector">
<use xlink:href="#path59_fill" transform="translate(189.978 -607.8)" fill="#56CCF2"/>
</g>
<g id="Vector">
<use xlink:href="#path60_fill" transform="translate(185.478 -598)" fill="#56CCF2"/>
</g>
<g id="Vector">
<use xlink:href="#path61_fill" transform="translate(185.578 -600.7)" fill="#56CCF2"/>
</g>
<g id="Vector">
<use xlink:href="#path62_fill" transform="translate(188.578 -603.8)" fill="#56CCF2"/>
</g>
<g id="Vector">
<use xlink:href="#path63_fill" transform="translate(189.078 -605)" fill="#56CCF2"/>
</g>
<g id="Vector">
<use xlink:href="#path64_fill" transform="translate(183.778 -608.9)" fill="#56CCF2"/>
</g>
<g id="Vector">
<use xlink:href="#path65_fill" transform="translate(187.478 -602.9)" fill="#56CCF2"/>
</g>
<g id="Vector">
<use xlink:href="#path66_fill" transform="translate(189.178 -602.9)" fill="#56CCF2"/>
</g>
<g id="Vector">
<use xlink:href="#path67_fill" transform="translate(187.678 -602.8)" fill="#56CCF2"/>
</g>
<g id="Vector">
<use xlink:href="#path68_fill" transform="translate(229.878 -597.9)" fill="#56CCF2"/>
</g>
<g id="Vector">
<use xlink:href="#path69_fill" transform="translate(227.878 -601.4)" fill="#56CCF2"/>
</g>
<g id="Vector">
<use xlink:href="#path70_fill" transform="translate(228.578 -597)" fill="#56CCF2"/>
</g>
<g id="Vector">
<use xlink:href="#path71_fill" transform="translate(226.278 -601.3)" fill="#56CCF2"/>
</g>
<g id="Vector">
<use xlink:href="#path72_fill" transform="translate(231.678 -608.4)" fill="#56CCF2"/>
</g>
<g id="Vector">
<use xlink:href="#path73_fill" transform="translate(222.305 -613.9)" fill="#56CCF2"/>
</g>
<g id="Vector">
<use xlink:href="#path74_fill" transform="translate(223.378 -605.7)" fill="#56CCF2"/>
</g>
<g id="Vector">
<use xlink:href="#path75_fill" transform="translate(222.378 -608.8)" fill="#56CCF2"/>
</g>
<g id="Vector">
<use xlink:href="#path76_fill" transform="translate(226.178 -601.3)" fill="#56CCF2"/>
</g>
<g id="Vector">
<use xlink:href="#path77_fill" transform="translate(228.278 -597.7)" fill="#56CCF2"/>
</g>
<g id="Vector">
<use xlink:href="#path78_fill" transform="translate(227.878 -598.7)" fill="#56CCF2"/>
</g>
<g id="Vector">
<use xlink:href="#path79_fill" transform="translate(224.878 -604.4)" fill="#56CCF2"/>
</g>
<g id="Vector">
<use xlink:href="#path80_fill" transform="translate(230.178 -610.1)" fill="#56CCF2"/>
</g>
<g id="Vector">
<use xlink:href="#path81_fill" transform="translate(226.278 -602.4)" fill="#56CCF2"/>
</g>
<g id="Vector">
<use xlink:href="#path82_fill" transform="translate(225.078 -602.9)" fill="#56CCF2"/>
</g>
<g id="Vector">
<use xlink:href="#path83_fill" transform="translate(229.478 -597.7)" fill="#56CCF2"/>
</g>
<g id="Vector">
<use xlink:href="#path84_fill" transform="translate(227.078 -601.3)" fill="#56CCF2"/>
</g>
<g id="Vector">
<use xlink:href="#path85_fill" transform="translate(231.678 -607.3)" fill="#56CCF2"/>
</g>
<g id="Vector">
<use xlink:href="#path86_fill" transform="translate(222.979 -613.1)" fill="#56CCF2"/>
</g>
<g id="Vector">
<use xlink:href="#path87_fill" transform="translate(226.278 -602.9)" fill="#56CCF2"/>
</g>
<g id="Vector">
<use xlink:href="#path88_fill" transform="translate(225.578 -603.4)" fill="#56CCF2"/>
</g>
<g id="Vector">
<use xlink:href="#path89_fill" transform="translate(223.378 -607.9)" fill="#56CCF2"/>
</g>
<g id="Vector">
<use xlink:href="#path90_fill" transform="translate(229.178 -598)" fill="#56CCF2"/>
</g>
<g id="Vector">
<use xlink:href="#path91_fill" transform="translate(228.378 -600.8)" fill="#56CCF2"/>
</g>
<g id="Vector">
<use xlink:href="#path92_fill" transform="translate(226.178 -603.8)" fill="#56CCF2"/>
</g>
<g id="Vector">
<use xlink:href="#path93_fill" transform="translate(224.978 -605)" fill="#56CCF2"/>
</g>
<g id="Vector">
<use xlink:href="#path94_fill" transform="translate(230.178 -608.9)" fill="#56CCF2"/>
</g>
<g id="Vector">
<use xlink:href="#path95_fill" transform="translate(226.278 -602.8)" fill="#56CCF2"/>
</g>
<g id="Vector">
<use xlink:href="#path96_fill" transform="translate(226.078 -602.9)" fill="#56CCF2"/>
</g>
<g id="Vector">
<use xlink:href="#path97_fill" transform="translate(226.478 -602.8)" fill="#56CCF2"/>
</g>
</g>
</g>
</g>
</g>
<defs>
<path id="path0_stroke" d="M 81.7244 28.6868C 81.9549 28.8389 82.265 28.7755 82.4172 28.5451L 84.8971 24.7901C 85.0493 24.5597 84.9859 24.2495 84.7555 24.0973C 84.525 23.9451 84.2149 24.0086 84.0627 24.239L 81.8583 27.5768L 78.5206 25.3724C 78.2901 25.2202 77.98 25.2836 77.8278 25.5141C 77.6756 25.7445 77.739 26.0546 77.9695 26.2068L 81.7244 28.6868ZM 0.490926 28.3643C 3.92259 10.5981 22.1209 0.879676 40.6283 0.510878C 59.1227 0.142338 77.5732 9.11867 81.5101 28.3697L 82.4899 28.1694C 78.4179 8.25773 59.3639 -0.862668 40.6083 -0.488924C 21.8657 -0.115438 3.06843 9.74739 -0.490926 28.1746L 0.490926 28.3643Z"/>
<path id="path1_fill" d="M 24.5811 1.52588e-06C 24.1811 0.500002 23.7811 1.2 23.3811 1.8C 22.2811 3.6 20.9811 5.7 19.1811 7C 17.0811 8.6 14.9811 9.3 13.0811 10C 10.5811 10.9 8.78114 11.8 6.78114 13.9C 3.98114 16.8 0.781139 20.7 0.281139 21.3L 0.181138 21.4C -0.118862 21.7 -0.0188612 22.2 0.281139 22.5C 0.381139 22.6 0.581139 22.7 0.781139 22.7C 0.981139 22.7 1.18114 22.6 1.38114 22.4C 1.38114 22.4 4.88114 18.1 7.88114 15C 9.68114 13.2 11.2811 12.3 13.5811 11.5C 15.4811 10.8 17.8811 10 20.0811 8.3C 22.0811 6.8 23.4811 4.5 24.6811 2.7C 25.3811 1.7 25.9811 0.7 26.5811 0.1L 25.5811 0.1L 24.5811 0.1L 24.5811 1.52588e-06Z"/>
<path id="path2_fill" d="M 19.625 22.7C 21.725 19.9 23.525 16.1 24.225 14.7C 24.925 14.9 26.225 15.5 26.525 17.4C 27.125 20.2 24.925 23.6 24.125 24.7L 24.025 24.8C 23.925 24.9 22.925 26.4 22.425 28.2C 22.025 29.7 21.925 31.4 22.825 32.8C 24.525 35.2 29.525 43.4 24.425 50C 24.125 50.3 24.225 50.8 24.525 51.1C 24.825 51.4 25.325 51.3 25.625 51C 26.625 49.6 27.325 48.2 27.725 46.8C 28.325 47.4 29.225 47.9 30.125 47.9L 39.625 47.9L 40.625 47.9L 41.625 47.9C 41.825 47.7 42.025 47.5 42.225 47.4C 43.025 47 44.125 46.7 45.125 46.3L 42.825 46.3L 41.125 46.3L 30.225 46.3C 29.225 46.3 28.425 45.5 28.425 44.5L 28.425 26L 28.425 25.1L 28.425 24.2L 28.425 3.3C 28.425 2.3 29.225 1.5 30.225 1.5L 48.225 1.5C 49.225 1.5 50.025 2.3 50.025 3.3L 50.025 10.6L 50.025 11.5L 50.025 12.4L 50.025 17L 50.025 17.9L 50.025 18.8L 50.025 25.7C 50.025 25.4 50.025 25 50.025 24.6C 50.025 24.4 50.125 24.2 50.325 24C 50.525 23.9 50.725 23.8 50.925 23.8C 50.925 23.8 51.225 23.9 51.525 24L 51.525 17.8L 54.025 16.2C 54.825 15.7 55.325 14.9 55.525 14C 55.725 13.1 55.525 12.2 55.025 11.4C 54.525 10.6 53.725 10.1 52.825 9.9C 52.425 9.8 52.025 9.8 51.625 9.9L 51.625 3.3C 51.625 1.5 50.125 0 48.325 0L 30.325 0C 28.425 0 26.925 1.5 26.925 3.3L 26.925 14.8C 25.925 13.6 24.525 13.2 23.725 13.1C 23.425 13.1 23.125 13.3 23.025 13.6C 23.025 13.6 20.825 18.6 18.425 21.8C 17.025 23.7 15.925 24.9 15.025 25.8C 14.525 26.3 14.025 26.8 13.725 27.3C 12.525 28.9 11.625 31.4 11.325 34L 11.225 34.8C 10.925 37.5 10.425 42.6 9.025 44.1C 6.625 46.6 0.325 52.6 0.225 52.7C -0.075 53 -0.075 53.5 0.225 53.8C 0.325 53.9 0.525 54 0.725 54C 0.925 54 1.125 53.9 1.225 53.8C 1.325 53.7 7.625 47.7 10.025 45.1C 11.625 43.4 12.225 39.1 12.625 34.9L 12.725 34.1C 13.025 31.3 14.025 29.2 14.825 28.2C 15.125 27.8 15.525 27.4 16.025 26.8C 16.925 26 18.125 24.7 19.625 22.7ZM 51.625 11.5C 51.825 11.4 52.025 11.4 52.225 11.4C 52.325 11.4 52.525 11.4 52.625 11.4C 53.125 11.5 53.525 11.8 53.825 12.2C 54.125 12.6 54.225 13.1 54.125 13.6C 54.025 14.1 53.725 14.5 53.325 14.8L 51.625 16L 51.625 11.5ZM 26.925 37C 26.025 34.7 24.825 32.9 24.125 32C 23.525 31.2 23.525 30 23.825 28.9L 26.825 27L 26.825 37L 26.925 37ZM 26.925 25.2L 24.825 26.5C 25.025 26.1 25.225 25.8 25.325 25.6L 25.425 25.5C 25.725 25 26.425 24.1 26.925 22.9L 26.925 25.2Z"/>
<path id="path3_fill" d="M 13.9 13.1C 13.9 11.8 13.8 10.6 13.5 9.7C 13.5 9.7 13.5 9.6 13.4 9.6C 13.8 9 14 8.3 14 7.4C 14.1 5.3 13.7 3.4 12.9 2.3C 12 1 10.6 0.5 9.8 0.2C 9.5 0.1 9.2 0.0999996 9.2 -3.8147e-07C 9 -3.8147e-07 8.8 3.72529e-07 8.6 0.2C 8.4 0.3 8.3 0.600001 8.3 0.800001C 8.3 1.2 8.3 1.6 8.3 1.9L 8.3 6.1L 8.3 8.7L 8.3 9.4L 8.3 10.1L 8.3 12L 8.3 14.3L 8.3 15.5L 8.3 15.7L 8.3 20.6C 8.3 20.7 8.3 20.8 8.3 20.9C 8.2 21.8 7.4 22.5 6.5 22.5L 3.5 22.5C 2.5 22.8 1.4 23.2 0.600002 23.6C 0.400002 23.7 0.199999 23.8 -7.62939e-07 24.1L 6.5 24.1C 8 24.1 9.2 23.1 9.7 21.8C 9.9 21.8 10.1 21.9 10.4 21.9C 12 21.9 13.1 20.7 13.1 18.9C 13.1 17.6 12.8 16.8 12.4 16.3C 13.3 15.6 13.9 14.5 13.9 13.1ZM 10.3 20.3C 10.1 20.3 10 20.3 9.8 20.2L 9.8 16.6C 9.8 16.6 9.8 16.6 9.7 16.6C 9.7 16.3 9.8 16 9.8 15.6L 9.8 16.6C 10 16.7 10.3 16.7 10.6 16.7C 10.7 16.7 10.7 16.7 10.8 16.7C 11.1 17.1 11.5 17.6 11.5 18.8C 11.5 19.5 11.3 20.3 10.3 20.3ZM 10.7 15.2C 10.4 15.2 10.2 15.1 9.9 15L 9.9 10.9C 10.2 11 10.4 11 10.7 11C 11.3 11 11.8 10.9 12.2 10.6C 12.3 11.3 12.4 12.1 12.4 13C 12.4 13.8 12.1 15.2 10.7 15.2ZM 12.6 7.3C 12.6 8.1 12.3 9.6 10.8 9.6C 10.5 9.6 10.2 9.5 10 9.4L 10 2C 10 1.9 10 1.9 10 1.8C 10.6 2 11.4 2.4 11.9 3.1C 12.3 3.9 12.6 5.5 12.6 7.3Z"/>
<path id="path4_fill" d="M 3.9 3C 3.5 3.2 3 3.4 2.1 3.3C 1.5 2 1.1 0.900001 0.800002 7.62939e-07L -1.52588e-06 7.62939e-07C 0.299998 1.2 0.8 2.5 1.4 3.7C 1.5 3.9 1.8 4.1 2 4.1C 2.1 4.1 2.2 4.1 2.3 4.1C 3.2 4.1 3.9 3.9 4.5 3.5C 4.4 3.4 4.3 3.4 4.1 3.3C 4 3.2 3.9 3.1 3.9 3Z"/>
<path id="path5_fill" d="M -3.05176e-06 0.500001L 0.3 0.500001C 0.2 0.400001 0.0999969 0.200001 -3.05176e-06 7.62939e-07C -3.05176e-06 0.200001 -3.05176e-06 0.300001 -3.05176e-06 0.500001Z"/>
<path id="path6_fill" d="M 3.1 2.4C 3.3 2 3.8 1.9 4.1 2.1C 4.3 2.2 4.6 2.3 4.8 2.4C 5.1 1.8 5.3 0.999999 5.4 0.299999C 5.4 0.199999 5.3 0.2 5.3 0.1L 3.9 0.1C 3.8 0.9 3.6 1.7 3.2 2.1C 2.9 2.4 2.4 2.6 1.8 2.6C 1.4 1.8 1.1 0.9 0.799997 3.55271e-15L 1.52588e-06 3.55271e-15C 0.300002 0.9 0.699997 2 1.3 3.3C 2.2 3.3 2.7 3.2 3.1 3C 2.9 3 2.9 2.7 3.1 2.4Z"/>
<path id="path7_fill" d="M 0.599997 3.8147e-07C 0.599997 0.1 0.499998 0.0999992 0.499998 0.199999C 0.399998 0.299999 0.199998 0.500001 -1.52588e-06 0.600001C 1.4 1.3 2.6 1.5 3.4 1.5C 3.6 1.5 3.7 1.5 3.9 1.5C 3.8 1.3 3.7 1 3.6 0.8C 2.8 0.7 1.7 0.5 0.599997 3.8147e-07Z"/>
<path id="path8_fill" d="M 0.399998 0C 0.299998 0.2 0.0999969 0.4 -3.05176e-06 0.6C 1.1 1.1 2.1 1.3 3 1.3C 2.9 0.999999 2.7 0.8 2.6 0.5C 2 0.5 1.3 0.4 0.399998 0Z"/>
<path id="path9_fill" d="M 1.3 0.3C 1.1 0.2 0.9 0.0999992 0.6 -7.62939e-07L 0.500002 -7.62939e-07C 0.400002 0.0999992 0.200002 0.200001 1.52588e-06 0.400001C 0.100002 0.500001 0.199997 0.6 0.299997 0.7C 0.399997 0.8 0.499999 0.800001 0.699998 0.900001C 0.899998 0.800001 0.999999 0.699999 1.2 0.499999C 1.2 0.399999 1.3 0.4 1.3 0.3Z"/>
<path id="path10_fill" d="M 1.075 0.1C 0.675 -0.0999996 0.275 -3.8743e-07 0.075 0.4C -0.025 0.6 -0.025 0.9 0.075 1.1C 0.275 1 0.475 0.800001 0.575 0.700001L 0.674998 0.700001C 0.874998 0.800001 1.075 0.9 1.375 1C 1.575 0.8 1.675 0.6 1.775 0.4C 1.475 0.4 1.275 0.3 1.075 0.1Z"/>
<path id="path11_fill" d="M 39.3 39.4432C 39.2 39.4432 30.9 35.7432 28.2 33.8432C 25.8 32.0432 23.8 29.7432 21.7 25.9432C 19.7 22.4432 13.3 11.4432 13.1 11.2432C 13 11.1432 8 4.44315 5.4 1.44315C 4.4 0.343153 3 -0.156847 1.6 0.0431533C 1.1 0.143153 0.599998 0.243153 -1.52588e-06 0.443153L -1.52588e-06 1.24315C 0.599998 1.04315 1.2 0.943153 1.7 0.843153C 2.9 0.643153 4 1.04315 4.8 1.94315C 7.5 5.04315 12.5 11.7432 12.5 11.7432C 12.5 11.7432 19 22.8432 21 26.3432C 23 29.8432 25 32.5432 27.8 34.5432C 30.6 36.5432 39 40.2432 39 40.2432C 39 40.2432 38.8 40.5432 38.6 40.8432L 38.7 40.8432C 38.8 40.8432 38.9 40.9432 39 40.9432C 39.3 40.9432 39.6 40.7432 39.7 40.4432C 39.8 40.0432 39.6 39.6432 39.3 39.4432Z"/>
<path id="path12_fill" d="M 27.8 33.7505C 25 31.7505 23 29.0505 21 25.5505C 19 22.0505 12.5 10.9505 12.5 10.9505C 12.5 10.9505 7.5 4.25047 4.8 1.15047C 4 0.250473 2.9 -0.149527 1.7 0.0504728C 1.2 0.150473 0.6 0.250473 0 0.450473L 0 1.25047C 0.6 1.05047 1.3 0.950473 1.8 0.850473C 2.7 0.650473 3.6 1.05047 4.2 1.75047C 6.8 4.75047 11.8 11.4505 11.8 11.4505C 11.9 11.5505 18.3 22.5505 20.3 26.0505C 22.6 30.0505 24.7 32.5505 27.3 34.4505C 30 36.3505 37.6 39.7505 38.6 40.1505C 38.9 39.7505 39 39.5505 39 39.5505C 39 39.5505 30.6 35.7505 27.8 33.7505Z"/>
<path id="path13_fill" d="M 2.5 3.3C 1.6 3.3 1.1 3.2 0.700002 3C 0.600002 3.1 0.499998 3.2 0.399998 3.3C 0.299998 3.4 0.200001 3.4 7.62939e-07 3.5C 0.600001 3.9 1.3 4.1 2.2 4.1C 2.3 4.1 2.4 4.1 2.5 4.1C 2.8 4.1 3 3.9 3.1 3.7C 3.7 2.5 4.2 1.2 4.5 7.62939e-07L 3.7 7.62939e-07C 3.4 0.900001 3 2 2.5 3.3Z"/>
<path id="path14_fill" d="M 3.6 2.5C 3 2.5 2.5 2.3 2.2 2C 1.7 1.5 1.6 0.799999 1.5 -7.62939e-07L 0.100001 -7.62939e-07C 0.100001 0.0999992 -1.52588e-06 0.1 -1.52588e-06 0.2C 0.0999985 0.9 0.200001 1.7 0.600001 2.3C 0.800001 2.2 1 2.1 1.3 2C 1.7 1.8 2.1 1.9 2.3 2.3C 2.4 2.5 2.4 2.8 2.3 3C 2.7 3.2 3.2 3.4 4.1 3.3C 4.7 2 5.1 0.899999 5.4 -7.62939e-07L 4.6 -7.62939e-07C 4.3 0.699999 4 1.6 3.6 2.5Z"/>
<path id="path15_fill" d="M 0.299998 7.62939e-07C 0.199998 0.200001 0.0999992 0.300001 -7.62939e-07 0.500001L 0.299998 0.500001C 0.299998 0.300001 0.299998 0.200001 0.299998 7.62939e-07Z"/>
<path id="path16_fill" d="M 3.3 3.8147e-07C 2.2 0.5 1.2 0.699999 0.299998 0.699999C 0.199998 0.899999 0.0999992 1.2 -7.62939e-07 1.4C 0.199999 1.4 0.299999 1.4 0.499999 1.4C 1.4 1.4 2.5 1.3 3.9 0.5C 3.7 0.4 3.6 0.300001 3.4 0.100001C 3.4 0.100001 3.3 0.1 3.3 3.8147e-07Z"/>
<path id="path17_fill" d="M 0.4 0.5C 0.3 0.8 0.0999985 0.999999 -1.52588e-06 1.3C 0.899998 1.3 1.9 1.1 3 0.6C 2.8 0.4 2.7 0.2 2.6 0C 1.7 0.4 1 0.5 0.4 0.5Z"/>
<path id="path18_fill" d="M 1.3 0.400001C 1.1 0.300001 0.899999 0.0999992 0.799999 -7.62939e-07L 0.700001 -7.62939e-07C 0.500001 0.0999992 0.3 0.2 7.10543e-15 0.3C 7.10543e-15 0.4 0.0999985 0.399999 0.0999985 0.499999C 0.199998 0.599999 0.399998 0.800001 0.599998 0.900001C 0.699998 0.800001 0.8 0.8 1 0.7C 1.2 0.6 1.3 0.500001 1.3 0.400001Z"/>
<path id="path19_fill" d="M 1.7 0.4C 1.5 -3.8743e-07 1 -0.0999996 0.700002 0.1C 0.500002 0.2 0.200001 0.3 7.62939e-07 0.4C 0.100001 0.6 0.299998 0.8 0.399998 1C 0.599998 0.9 0.799999 0.800001 1.1 0.700001L 1.2 0.700001C 1.3 0.800001 1.5 0.9 1.7 1.1C 1.8 1 1.8 0.7 1.7 0.4Z"/>
<path id="path20_fill" d="M 12.0785 34.477C 14.8785 32.477 16.7785 29.777 18.7785 26.277C 20.7785 22.777 27.2785 11.677 27.2785 11.677C 27.2785 11.677 32.2785 4.97696 34.9785 1.87696C 35.7785 0.976963 36.8785 0.576963 38.0785 0.776963C 38.5785 0.876963 39.1785 0.976963 39.7785 1.17696L 39.7785 0.476963C 39.2785 0.376963 38.6785 0.176963 38.1785 0.0769632C 36.7785 -0.223037 35.2785 0.376963 34.3785 1.47696C 31.6785 4.57696 26.6785 11.277 26.5785 11.377C 26.4785 11.477 20.0785 22.477 18.0785 25.977C 15.8785 29.777 13.9785 32.177 11.5785 33.877C 8.87846 35.777 0.578461 39.477 0.478461 39.477C 0.078461 39.677 -0.121539 40.077 0.078461 40.477C 0.178461 40.777 0.478461 40.977 0.778461 40.977C 0.878461 40.977 0.978461 40.977 1.07846 40.877L 1.17846 40.877C 0.978461 40.477 0.878461 40.177 0.878461 40.177C 0.878461 40.177 9.27846 36.477 12.0785 34.477Z"/>
<path id="path21_fill" d="M 18.6 25.8505C 20.6 22.3505 27 11.3505 27 11.3505C 27 11.2505 32 4.65047 34.6 1.65047C 35.2 0.950473 36.1 0.650473 37 0.750473C 37.6 0.850473 38.2 1.05047 38.8 1.15047L 38.8 0.450473C 38.2 0.250473 37.6 0.150473 37.1 0.0504727C 35.9 -0.149527 34.8 0.250473 34 1.15047C 31.3 4.25047 26.3 10.9505 26.3 10.9505C 26.3 10.9505 19.8 22.0505 17.8 25.5505C 15.8 29.0505 13.8 31.7505 11.1 33.7505C 8.4 35.7505 1.19209e-08 39.3505 1.19209e-08 39.3505C 1.19209e-08 39.3505 0.2 39.6505 0.4 39.9505C 1.4 39.5505 9 36.1505 11.7 34.2505C 14.2 32.3505 16.3 29.8505 18.6 25.8505Z"/>
<path id="path22_fill" d="M 0.399998 7.62939e-07C 0.299998 0.400001 0.200001 1 7.62939e-07 1.5L 24.9 1.5C 24.8 0.900001 24.6 0.400001 24.5 7.62939e-07L 0.399998 7.62939e-07Z"/>
<path id="path23_fill" d="M 1.4 3.3C 1.4 2.3 2.2 1.5 3.2 1.5L 44.4 1.5C 45.4 1.5 46.2 2.3 46.2 3.3L 46.2 4.7C 46.7 4.5 47.2 4.4 47.7 4.3L 47.7 3.3C 47.7 1.5 46.2 0 44.4 0L 3.3 0C 1.5 0 -7.62939e-07 1.5 -7.62939e-07 3.3L -7.62939e-07 4.3C 0.499999 4.4 0.999999 4.6 1.5 4.7L 1.5 3.3L 1.4 3.3Z"/>
<path id="path24_fill" d="M -1.52588e-06 10.1C 0.499998 10.7 0.999998 11.2 1.5 11.8L 1.5 9.53674e-08C 0.999998 0.1 0.499998 0.3 -1.52588e-06 0.5L -1.52588e-06 10.1Z"/>
<path id="path25_fill" d="M 3.4 7.62939e-07L 3.05176e-06 7.62939e-07C 0.100003 0.500001 0.199997 1 0.399997 1.5L 3.5 1.5C 3.5 1 3.4 0.500001 3.4 7.62939e-07Z"/>
<path id="path26_fill" d="M 0.7 7.62939e-07L 3.05176e-06 7.62939e-07C 0.100003 0.400001 0.199997 1 0.399997 1.5L 1.2 1.5C 0.9 0.900001 0.8 0.400001 0.7 7.62939e-07Z"/>
<path id="path27_fill" d="M 0.3 7.62939e-07L -3.05176e-06 7.62939e-07C -3.05176e-06 0.500001 -3.05176e-06 1 -3.05176e-06 1.5L 1.4 1.5C 1.3 1.4 1.2 1.2 1.1 1.1C 0.800003 0.699999 0.6 0.400001 0.3 7.62939e-07Z"/>
<path id="path28_fill" d="M 0.800003 7.62939e-07L 0 7.62939e-07C 0.1 0.400001 0.200002 0.900001 0.400002 1.5L 1.2 1.5C 0.999997 1 0.900003 0.400001 0.800003 7.62939e-07Z"/>
<path id="path29_fill" d="M -1.52588e-06 1.2C 0.499998 1 0.999998 0.9 1.5 0.8L 1.5 1.90735e-07C 0.999998 0.1 0.499998 0.3 -1.52588e-06 0.4L -1.52588e-06 1.2Z"/>
<path id="path30_fill" d="M -1.52588e-06 1.2C 0.499998 1 0.999998 0.9 1.5 0.7L 1.5 -9.53674e-08C 0.999998 0.0999999 0.499998 0.3 -1.52588e-06 0.4L -1.52588e-06 1.2Z"/>
<path id="path31_fill" d="M -1.52588e-06 1.5L 3.1 1.5C 3.3 1 3.4 0.400001 3.5 7.62939e-07L 0.100001 7.62939e-07C 7.59959e-07 0.500001 -1.52588e-06 1 -1.52588e-06 1.5Z"/>
<path id="path32_fill" d="M 1.5 0.5C 1 0.3 0.500001 0.2 7.62939e-07 1.90735e-07L 7.62939e-07 11.8C 0.500001 11.3 1 10.7 1.5 10.1L 1.5 0.5Z"/>
<path id="path33_fill" d="M 0.399999 7.62939e-07C 0.299999 0.400001 0.200002 0.900001 1.52588e-06 1.5L 0.800001 1.5C 0.900001 0.900001 1.1 0.400001 1.2 7.62939e-07L 0.399999 7.62939e-07Z"/>
<path id="path34_fill" d="M -1.52588e-06 1.5L 0.800002 1.5C 1 0.900001 1.1 0.400001 1.2 7.62939e-07L 0.4 7.62939e-07C 0.3 0.400001 0.199998 1 -1.52588e-06 1.5Z"/>
<path id="path35_fill" d="M 1.4 7.62939e-07L 1.1 7.62939e-07C 0.799999 0.400001 0.6 0.699999 0.3 1.1C 0.2 1.2 0.100001 1.4 7.62939e-07 1.5L 1.4 1.5C 1.4 1 1.4 0.500001 1.4 7.62939e-07Z"/>
<path id="path36_fill" d="M 1.5 1.2L 1.5 0.4C 1 0.2 0.500001 0.1 7.62939e-07 1.90735e-07L 7.62939e-07 0.8C 0.500001 0.9 1 1.1 1.5 1.2Z"/>
<path id="path37_fill" d="M 1.5 0.4C 1 0.2 0.500001 0.0999999 7.62939e-07 -9.53674e-08L 7.62939e-07 0.8C 0.500001 0.9 1 1.1 1.5 1.3L 1.5 0.4Z"/>
<path id="path38_fill" d="M -7.62939e-07 0C -7.62939e-07 0.1 1.52737e-06 0.200001 0.100002 0.200001C 0.100002 0.100001 0.2 0.1 0.2 0C 0.2 0 0.0999992 0 -7.62939e-07 0Z"/>
<path id="path39_fill" d="M 0.1 3.8147e-07L 1.52588e-06 0.100001C 1.52588e-06 7.59959e-07 0 3.8147e-07 0.1 3.8147e-07Z"/>
<path id="path40_fill" d="M 33.8744 0C 33.7744 0 33.7744 0 33.6744 0C 33.3744 0.8 33.0744 1.6 32.9744 2.3C 32.3744 5.5 32.2744 11.7 23.9744 16.8C 22.9744 17.4 17.6744 17.7 15.9744 18.9L 0.774434 28.2L 0.374433 27.6C -0.0255669 27.8 -0.125567 28.3 0.174433 28.6C 0.274433 28.9 0.574434 29 0.774434 29C 0.874434 29 1.07443 29 1.17443 28.9L 16.3744 19.5C 17.1744 18.9 19.3744 18.5 21.0744 18.2C 22.7744 17.9 23.7744 17.7 24.2744 17.4C 31.9744 12.6 32.8744 6.8 33.3744 3.4C 33.4744 3 33.4744 2.7 33.5744 2.4C 33.6744 1.7 33.9744 0.9 34.3744 0.1C 34.2744 0.1 34.1744 0.1 34.0744 0.1L 33.8744 0Z"/>
<path id="path41_fill" d="M 7.62939e-07 1.9C 7.62939e-07 2.1 7.62939e-07 2.3 7.62939e-07 2.5C 0.500001 1.8 0.999998 1 1.4 7.62939e-07L 0.0999992 1.2C -7.6741e-07 1.5 7.62939e-07 1.7 7.62939e-07 1.9Z"/>
<path id="path42_fill" d="M 1.6 7.62939e-07C 1.5 0.200001 1.3 0.399999 1.2 0.599999C 0.900001 1.1 0.500001 1.8 7.62939e-07 2.6C 7.62939e-07 2.7 7.62939e-07 2.8 7.62939e-07 2.8C 0.200001 2.8 0.500002 2.8 0.700002 2.8C 1.1 2.1 1.4 1.5 1.8 1C 2 0.700001 2.2 0.5 2.4 0.2C 2.4 0.0999996 2.4 0.100001 2.4 7.62939e-07L 1.6 7.62939e-07Z"/>
<path id="path43_fill" d="M 7.1 1.7C 5.9 0.1 3.7 3.8147e-07 3.6 3.8147e-07C 3.4 3.8147e-07 3.1 0.0999996 3 0.3C 2.5 0.9 1.4 2.3 7.62939e-07 3.9L 7.62939e-07 5C 1.6 3.2 3 1.5 3.6 0.8C 3.6 0.8 7.8 1 7 5.1C 6.9 5.5 6.8 5.8 6.7 6.2L 7.7 5.2C 8.1 3.8 7.9 2.6 7.1 1.7Z"/>
<path id="path44_fill" d="M 7.3 3.8C 8.1 3.2 9.1 2.2 10.1 1.1L 10.1 3.8147e-07C 8.9 1.3 7.7 2.5 6.8 3.2C 4.1 5.3 0.8 5.1 0.8 5.1C 0.4 5.1 3.8147e-07 5.4 3.8147e-07 5.8C 3.8147e-07 6 0.0999996 6.2 0.3 6.4L 0.8 5.9C 0.8 5.9 4.3 6.1 7.3 3.8Z"/>
<path id="path45_fill" d="M -1.52588e-06 0.2C -1.52588e-06 0.0999996 0.100001 0.100001 0.100001 7.62939e-07L -1.52588e-06 7.62939e-07C -1.52588e-06 0.100001 -1.52588e-06 0.0999996 -1.52588e-06 0.2Z"/>
<path id="path46_fill" d="M 1 4.3C 1.1 4.6 0.999999 4.9 0.699998 5.1L 0.399999 5.3C 0.299999 5.5 0.100002 5.7 1.52588e-06 5.9L 0.899999 5.9C 0.999999 5.8 1.1 5.6 1.2 5.4C 1.2 5.2 1.2 5 1.2 4.8C 1.2 4.6 1.2 4.4 1.2 4.2L 2.5 3C 2.9 2.1 3.3 1.1 3.5 -7.62939e-07L 2.5 0.999999C 2.2 2.2 1.6 3.3 1 4.3Z"/>
<path id="path47_fill" d="M 0.299999 7.62939e-07C 0.199999 0.200001 0.1 0.5 0 0.7C 0.1 0.7 0.100001 0.7 0.200001 0.7L 0.5 0.7C 0.6 0.7 0.699999 0.7 0.799999 0.7C 0.899999 0.5 0.999998 0.200001 1.1 7.62939e-07C 0.799998 0.100001 0.499999 0.100001 0.299999 7.62939e-07Z"/>
<path id="path48_fill" d="M 0.499999 0.2C 0.499999 0.1 0.499999 -7.62939e-07 0.499999 -7.62939e-07C 0.299999 0.299999 0.199999 0.599999 -7.62939e-07 0.999999C 0.199999 0.999999 0.499998 0.999999 0.799998 0.999999C 0.899998 0.699999 1.1 0.5 1.2 0.2C 0.9 0.2 0.699999 0.2 0.499999 0.2Z"/>
<path id="path49_fill" d="M -7.62939e-07 1L 0.299998 0.8C 0.599998 0.6 0.700002 0.3 0.600002 3.8147e-07C 0.400002 0.4 0.199999 0.7 -7.62939e-07 1Z"/>
<path id="path50_fill" d="M 1.5 1.1L 1.5 0C 1 0.6 0.500001 1.1 7.62939e-07 1.7L 7.62939e-07 2.8C 0.500001 2.2 1 1.7 1.5 1.1Z"/>
<path id="path51_fill" d="M 0.799998 1.1C 0.799998 0.700001 0.799998 0.4 0.799998 3.8147e-07C 0.499998 0.4 0.299999 0.700001 -7.62939e-07 1.1L 0.799998 1.1Z"/>
<path id="path52_fill" d="M 1.2 7.62939e-07L 0.300002 7.62939e-07C 0.200002 0.200001 0.0999985 0.300001 -1.52588e-06 0.500001C -1.52588e-06 0.800001 -1.52588e-06 1.2 -1.52588e-06 1.6L 0.100001 1.6C 0.200001 1.5 0.3 1.3 0.4 1.2C 0.7 0.7 0.899999 0.400001 1.2 7.62939e-07Z"/>
<path id="path53_fill" d="M 15.6 19.6C 17.3 18.4 22.6 18.1 23.6 17.5C 31.9 12.4 32 6.2 32.6 3C 32.7 2.3 33 1.5 33.3 0.7C 33.1 0.6 32.9 0.5 32.8 0.2C 32.8 0.1 32.8 0.0999992 32.7 -7.62939e-07C 32.3 0.899999 31.9 1.9 31.8 2.8C 31.7 3.1 31.7 3.5 31.6 3.8C 31.1 7.2 30.3 12.3 23.2 16.8C 22.9 17 21.6 17.2 20.5 17.4C 18.5 17.8 16.3 18.2 15.2 18.9L -1.90735e-07 28.3L 0.4 28.9L 15.6 19.6Z"/>
<path id="path54_fill" d="M 5.9 1.9C 6.3 2.4 6.5 3.2 6.3 4.2C 6.1 5.1 5.9 5.9 5.5 6.6L 6.7 5.4C 6.8 5 6.9 4.7 7 4.3C 7.8 0.2 3.6 1.90735e-07 3.6 1.90735e-07C 3 0.7 1.6 2.5 -7.62939e-07 4.2L -7.62939e-07 5.3C 1.6 3.6 3.1 1.7 3.9 0.7C 4.4 1 5.3 1.2 5.9 1.9Z"/>
<path id="path55_fill" d="M 0 0.100001C 0.1 0.100001 0.0999985 3.8147e-07 0.0999985 3.8147e-07C -1.52737e-06 3.8147e-07 0 0.100001 0 0.100001Z"/>
<path id="path56_fill" d="M 1.6375 7.62939e-07L 0.737502 7.62939e-07C 0.737502 0.100001 0.637499 0.0999996 0.637499 0.2C 0.537499 0.3 0.5375 0.399999 0.3375 0.599999C 0.0375 1.2 -0.0624992 1.8 0.0375008 2.6C 0.437501 1.8 0.837502 1.1 1.2375 0.599999C 1.3375 0.399999 1.5375 0.200001 1.6375 7.62939e-07Z"/>
<path id="path57_fill" d="M 7 2.7C 4 5 0.5 4.8 0.5 4.8L -3.8147e-07 5.3C 0.0999996 5.4 0.3 5.5 0.5 5.5C 0.7 5.5 4.3 5.7 7.5 3.3C 8.2 2.8 9 2 9.9 1.1L 9.9 7.62939e-07C 8.8 1.1 7.8 2.1 7 2.7Z"/>
<path id="path58_fill" d="M -1.52588e-06 0.600001L 0.300002 0.600001C 0.400002 0.400001 0.599999 0.2 0.699999 3.8147e-07C 0.399999 0.2 0.199998 0.300001 -1.52588e-06 0.600001C -1.52588e-06 0.500001 -1.52588e-06 0.600001 -1.52588e-06 0.600001Z"/>
<path id="path59_fill" d="M 1.52588e-06 2.8C 0.200002 2.8 0.299999 2.9 0.399999 3.1C 0.499999 3.2 0.500002 3.3 0.500002 3.4C 1.1 2.4 1.7 1.3 2 7.62939e-07L 0.800001 1.2C 0.600001 1.8 0.300002 2.3 1.52588e-06 2.8Z"/>
<path id="path60_fill" d="M 0.1 0C 0.1 0.1 1.52588e-06 0.100001 1.52588e-06 0.200001C 1.52588e-06 0.300001 0 0.3 0.1 0.4C 0.2 0.6 0.4 0.8 0.6 0.9C 0.7 0.7 0.799999 0.400001 0.899999 0.200001C 0.899999 0.200001 0.900001 0.200001 0.800001 0.200001C 0.600001 0.100001 0.3 0.1 0.1 0Z"/>
<path id="path61_fill" d="M 1.5 -7.62939e-07C 1.1 0.599999 0.5 1.6 0 2.8C 0.2 2.8 0.400001 2.9 0.700001 3C 0.700001 3 0.699999 3 0.799999 3C 0.999999 2.7 1.1 2.3 1.3 2C 1.1 1.2 1.2 0.599999 1.5 -7.62939e-07Z"/>
<path id="path62_fill" d="M 0.599998 0.9C 0.599998 0.6 0.600001 0.300001 0.700001 7.62939e-07C 0.500001 0.300001 0.2 0.700001 0 1L 0.5 1C 0.5 1 0.499998 0.9 0.599998 0.9Z"/>
<path id="path63_fill" d="M 0.900002 0C 0.700002 0.4 0.399998 0.800001 0.0999985 1.2C 0.0999985 1.5 0.1 1.8 0 2.1C 0.2 1.9 0.500001 1.8 0.700001 1.6C 0.900001 1.3 1.1 0.9 1.4 0.6C 1.4 0.5 1.3 0.399999 1.3 0.299999C 1.2 0.199999 1.1 0.1 0.900002 0Z"/>
<path id="path64_fill" d="M 1.5 3.8147e-07C 1 0.6 0.500001 1.1 7.62939e-07 1.6L 7.62939e-07 2.7C 0.500001 2.2 1 1.7 1.5 1.1L 1.5 3.8147e-07Z"/>
<path id="path65_fill" d="M 0.899999 1.6C 1.1 1.3 1.4 0.9 1.7 0.5C 1.7 0.3 1.7 0.2 1.7 3.8147e-07L 1.6 3.8147e-07C 1 0.4 0.5 0.9 0.1 1.4L 1.52588e-06 1.5L 0.899999 1.5L 0.899999 1.6Z"/>
<path id="path66_fill" d="M -1.52588e-06 0.5C 0.0999985 0.4 0.200002 0.2 0.300002 3.8147e-07L -1.52588e-06 3.8147e-07C -1.52588e-06 0.2 -1.52588e-06 0.4 -1.52588e-06 0.5Z"/>
<path id="path67_fill" d="M 1.4 7.62939e-07L 0.9 7.62939e-07C 0.9 0.100001 0.800002 0.0999996 0.800002 0.2C 0.500001 0.6 0.199998 1 -1.52588e-06 1.4C 0.299998 0.8 0.8 0.400001 1.4 7.62939e-07Z"/>
<path id="path68_fill" d="M 0.100002 0.199999C 0.100002 0.0999992 0.1 3.8147e-07 0.2 3.8147e-07C 0.1 3.8147e-07 0.100003 3.8147e-07 3.05176e-06 3.8147e-07C 3.05176e-06 3.8147e-07 0.100002 0.0999992 0.100002 0.199999Z"/>
<path id="path69_fill" d="M 0.100002 0.100001L 3.05176e-06 3.8147e-07C 0.100003 3.8147e-07 0.100002 7.59959e-07 0.100002 0.100001Z"/>
<path id="path70_fill" d="M 18.5 18.9C 16.8 17.7 11.5 17.4 10.5 16.8C 2.2 11.7 2.1 5.5 1.5 2.3C 1.4 1.6 1.1 0.8 0.800003 3.55271e-15C 0.700003 3.55271e-15 0.699998 3.55271e-15 0.599998 3.55271e-15L 0.300003 3.55271e-15C 0.200003 3.55271e-15 0.1 3.55271e-15 0 3.55271e-15C 0.4 0.8 0.600003 1.6 0.800003 2.3C 0.900003 2.6 0.9 2.9 1 3.3C 1.5 6.8 2.4 12.5 10.1 17.3C 10.6 17.6 11.6 17.8 13.3 18.1C 15 18.4 17.2 18.8 18.1 19.4L 33.2 28.8C 33.3 28.9 33.5 28.9 33.6 28.9C 33.9 28.9 34.1 28.8 34.2 28.5C 34.4 28.1 34.3 27.7 34 27.5L 33.6 28.1L 18.5 18.9Z"/>
<path id="path71_fill" d="M 0.8 7.62939e-07L -3.05176e-06 7.62939e-07C -3.05176e-06 0.100001 -3.05176e-06 0.0999996 -3.05176e-06 0.2C 0.199997 0.5 0.400003 0.700001 0.600003 1C 0.900003 1.5 1.3 2.1 1.7 2.8C 1.9 2.8 2.2 2.8 2.4 2.8C 2.4 2.7 2.4 2.6 2.4 2.6C 2 1.8 1.6 1.1 1.2 0.599999C 1.1 0.399999 0.9 0.200001 0.8 7.62939e-07Z"/>
<path id="path72_fill" d="M 2.8 3.8C 5.8 6.1 9.3 5.9 9.3 5.9L 9.8 6.4C 10 6.3 10.1 6 10.1 5.8C 10.1 5.4 9.7 5.1 9.3 5.1C 9.3 5.1 6 5.3 3.3 3.2C 2.4 2.5 1.2 1.3 -1.52588e-06 3.8147e-07L -1.52588e-06 1.1C 0.999998 2.2 2 3.2 2.8 3.8Z"/>
<path id="path73_fill" d="M 4.27351 3.8147e-07C 4.17351 3.8147e-07 1.97351 0.1 0.773506 1.7C 0.0735065 2.6 -0.12649 3.8 0.0735095 5.2L 1.07351 6.2C 0.97351 5.8 0.873506 5.5 0.773506 5.1C -0.0264935 1 4.17351 0.8 4.17351 0.8C 4.77351 1.5 6.17351 3.3 7.77351 5L 7.77351 3.9C 6.47351 2.4 5.27351 1 4.77351 0.3C 4.67351 0.0999996 4.47351 3.8147e-07 4.27351 3.8147e-07Z"/>
<path id="path74_fill" d="M 1.3 1.8C 1.3 1.6 1.3 1.4 1.3 1.2L 3.05176e-06 -7.62939e-07C 0.400003 0.899999 0.899997 1.7 1.4 2.5C 1.4 2.2 1.4 2 1.3 1.8Z"/>
<path id="path75_fill" d="M 2.3 4.9C 2.3 5.1 2.3 5.3 2.3 5.5C 2.4 5.7 2.5 5.8 2.6 6L 3.5 6C 3.4 5.8 3.2 5.6 3.1 5.4L 2.8 5.2C 2.5 5 2.4 4.7 2.5 4.4C 1.9 3.4 1.3 2.3 1 1L 3.05176e-06 7.62939e-07C 0.200003 1.1 0.600003 2.1 1 3L 2.3 4.2C 2.3 4.5 2.3 4.7 2.3 4.9Z"/>
<path id="path76_fill" d="M -1.52588e-06 7.62939e-07C -1.52588e-06 0.100001 0.0999969 0.0999996 0.0999969 0.2C 0.0999969 0.0999996 0.0999969 0.100001 0.0999969 7.62939e-07L -1.52588e-06 7.62939e-07Z"/>
<path id="path77_fill" d="M 0.899998 0.7C 0.999999 0.7 1 0.7 1.1 0.7C 1 0.5 0.9 0.199999 0.8 -7.62939e-07C 0.6 -7.62939e-07 0.299997 -7.62939e-07 -3.05176e-06 -7.62939e-07C 0.0999969 0.199999 0.2 0.5 0.3 0.7C 0.4 0.7 0.500003 0.7 0.600003 0.7L 0.899998 0.7Z"/>
<path id="path78_fill" d="M 0.7 0.2C 0.5 0.2 0.200003 0.2 3.05176e-06 0.2C 0.100003 0.5 0.299997 0.699999 0.399997 0.999999C 0.699997 0.999999 1 0.999999 1.2 0.999999C 1 0.699999 0.9 0.299999 0.7 -7.62939e-07C 0.8 -7.62939e-07 0.8 0.1 0.7 0.2Z"/>
<path id="path79_fill" d="M 0.399997 0.8L 0.7 1C 0.5 0.7 0.300003 0.3 3.05176e-06 3.8147e-07C 3.05176e-06 0.3 0.0999969 0.6 0.399997 0.8Z"/>
<path id="path80_fill" d="M -1.52588e-06 1.2C 0.499998 1.8 0.999998 2.3 1.5 2.8L 1.5 1.7C 0.999998 1.2 0.499998 0.6 -1.52588e-06 -3.8147e-07L -1.52588e-06 1.2Z"/>
<path id="path81_fill" d="M -3.05176e-06 1.1L 0.8 1.1C 0.6 0.800001 0.299997 0.4 -3.05176e-06 3.8147e-07C 0.0999969 0.4 0.0999969 0.700001 -3.05176e-06 1.1Z"/>
<path id="path82_fill" d="M 1.3 0.5C 1.2 0.4 1.1 0.2 1 3.8147e-07L 0 3.8147e-07C 0.3 0.4 0.500003 0.700001 0.800003 1.1C 0.900003 1.2 0.999998 1.4 1.1 1.5L 1.2 1.5C 1.3 1.2 1.3 0.9 1.3 0.5Z"/>
<path id="path83_fill" d="M 18.1 18.9C 17 18.1 14.7 17.7 12.8 17.4C 11.7 17.2 10.4 17 10.1 16.8C 2.9 12.4 2.2 7.2 1.7 3.8C 1.6 3.4 1.6 3.1 1.5 2.8C 1.3 1.9 1 0.899999 0.6 -7.62939e-07C 0.6 0.0999992 0.600002 0.1 0.500002 0.2C 0.400002 0.4 0.200002 0.6 1.52588e-06 0.7C 0.300002 1.5 0.599998 2.3 0.699998 3C 1.3 6.2 1.4 12.4 9.7 17.5C 10.7 18.1 16 18.4 17.7 19.6L 32.8 29L 33.2 28.4L 18.1 18.9Z"/>
<path id="path84_fill" d="M 0.900002 7.62939e-07L 0 7.62939e-07C 0.1 0.200001 0.300002 0.399999 0.400002 0.599999C 0.700002 1.1 1.1 1.8 1.6 2.6C 1.7 1.8 1.6 1.2 1.3 0.599999C 1.2 0.399999 1.1 0.3 1 0.2C 1 0.0999996 1 0.100001 0.900002 7.62939e-07Z"/>
<path id="path85_fill" d="M 2.8 2.7C 2 2.1 0.999998 1.1 -1.52588e-06 7.62939e-07L -1.52588e-06 1.1C 0.899998 2 1.7 2.8 2.4 3.3C 5.6 5.7 9.3 5.5 9.4 5.5C 9.6 5.5 9.7 5.4 9.9 5.3L 9.4 4.8C 9.3 4.8 5.8 5 2.8 2.7Z"/>
<path id="path86_fill" d="M 0.0992922 4.2C 0.199292 4.6 0.299295 4.9 0.399295 5.3L 1.59929 6.5C 1.29929 5.8 0.999289 5 0.799289 4.1C 0.599289 3.1 0.699291 2.4 1.19929 1.8C 1.69929 1.1 2.69929 0.8 3.19929 0.7C 3.99929 1.7 5.49929 3.5 7.09929 5.3L 7.09929 4.2C 5.49929 2.4 4.09929 0.7 3.49929 -3.8147e-07C 3.59929 -3.8147e-07 -0.700708 0.2 0.0992922 4.2Z"/>
<path id="path87_fill" d="M 0.100003 0.100001L -3.05176e-06 3.8147e-07C -3.05176e-06 3.8147e-07 3.04729e-06 0.100001 0.100003 0.100001Z"/>
<path id="path88_fill" d="M 0.400002 0.600001L 0.699997 0.600001L 0.699997 0.5C 0.499997 0.3 0.2 0.2 0 3.8147e-07C 0.2 0.2 0.300002 0.400001 0.400002 0.600001Z"/>
<path id="path89_fill" d="M 1.7 3.2C 1.8 3 2 3 2.1 2.9C 1.8 2.4 1.5 1.8 1.2 1.2L 3.05176e-06 3.8147e-07C 0.400003 1.3 0.900003 2.4 1.5 3.4C 1.6 3.4 1.6 3.3 1.7 3.2Z"/>
<path id="path90_fill" d="M -1.52588e-06 0.200001C -1.52588e-06 0.400001 0.100003 0.7 0.200003 0.9C 0.400003 0.8 0.600003 0.7 0.700003 0.4C 0.700003 0.3 0.700001 0.300001 0.800002 0.200001C 0.800002 0.100001 0.700003 0.1 0.700003 0C 0.500003 0.1 0.199998 0.100001 -1.52588e-06 0.200001Z"/>
<path id="path91_fill" d="M 1.5 2.8C 1 1.6 0.400003 0.600001 3.05176e-06 7.62939e-07C 0.300003 0.600001 0.399998 1.2 0.299998 2C 0.499998 2.3 0.599998 2.6 0.799998 3C 0.799998 3 0.799997 3 0.899997 3C 0.999997 2.9 1.3 2.9 1.5 2.8Z"/>
<path id="path92_fill" d="M 0.0999969 0.9L 0.200003 1L 0.700003 1C 0.500003 0.700001 0.199998 0.400001 -1.52588e-06 7.62939e-07C 0.0999985 0.300001 0.0999969 0.6 0.0999969 0.9Z"/>
<path id="path93_fill" d="M 0.1 0.299999C 0 0.399999 1.52588e-06 0.5 1.52588e-06 0.6C 0.200002 1 0.399998 1.3 0.699998 1.6C 0.899998 1.8 1.2 1.9 1.4 2.1C 1.4 1.8 1.4 1.5 1.3 1.2C 0.999997 0.800001 0.800002 0.4 0.500002 -3.55271e-15C 0.300002 0.1 0.2 0.199999 0.1 0.299999Z"/>
<path id="path94_fill" d="M -1.52588e-06 3.8147e-07L -1.52588e-06 1.1C 0.499998 1.7 0.999998 2.2 1.5 2.7L 1.5 1.6C 0.999998 1.1 0.499998 0.6 -1.52588e-06 3.8147e-07Z"/>
<path id="path95_fill" d="M 0.100003 7.62939e-07C 3.04729e-06 0.100001 -3.05176e-06 0.300001 -3.05176e-06 0.500001C 0.299997 0.900001 0.5 1.2 0.8 1.6L 1.7 1.6L 1.6 1.5C 1.2 0.900001 0.700003 0.400001 0.100003 7.62939e-07Z"/>
<path id="path96_fill" d="M 0.300003 0.5C 0.300003 0.3 0.300003 0.2 0.300003 3.8147e-07L 0 3.8147e-07C 0 0.2 0.100003 0.4 0.300003 0.5Z"/>
<path id="path97_fill" d="M 1.4 1.4C 1.1 1 0.9 0.6 0.6 0.2C 0.6 0.0999996 0.500002 0.100001 0.500002 7.62939e-07L 1.52588e-06 7.62939e-07C 0.500002 0.400001 1 0.9 1.4 1.4Z"/>
</defs>
</svg>
